<?xml version="1.0" encoding="UTF-8" ?>
<!DOCTYPE svg PUBLIC "-//W3C//DTD SVG 1.1//EN" "http://www.w3.org/Graphics/SVG/1.1/DTD/svg11.dtd">
<svg width="303pt" height="72pt" viewBox="0 0 303 72" version="1.1" xmlns="http://www.w3.org/2000/svg">
<g id="#0b5d84ff">
<path fill="#0b5d84" opacity="1.00" d=" M 0.00 0.00 L 80.07 0.00 C 75.91 3.69 72.91 8.61 71.61 14.03 C 70.70 18.44 67.23 21.64 65.80 25.83 C 64.67 29.05 63.17 32.14 61.29 35.00 C 56.96 21.47 46.90 10.64 35.95 1.99 C 31.15 5.04 27.39 9.39 23.40 13.38 C 16.31 20.95 9.76 30.35 10.11 41.19 C 9.01 40.88 7.91 40.58 6.81 40.27 C 6.78 41.71 7.28 43.25 6.67 44.61 C 4.67 47.06 2.06 48.93 0.00 51.32 L 0.00 0.00 Z" />
</g>
<g id="#0a4468ff">
<path fill="#0a4468" opacity="1.00" d=" M 80.07 0.00 L 88.12 0.00 C 86.70 2.70 85.49 5.50 84.52 8.39 C 81.77 11.05 79.87 14.46 78.58 18.04 C 72.98 20.17 66.99 24.20 66.80 30.83 C 67.29 31.08 68.26 31.58 68.75 31.83 C 71.29 30.38 74.12 29.60 77.05 29.54 C 77.03 31.52 77.03 33.50 77.11 35.48 C 76.49 35.80 75.26 36.43 74.64 36.75 C 74.00 38.38 73.36 40.01 72.72 41.65 C 69.95 40.17 67.35 38.39 65.04 36.26 C 63.93 36.86 62.82 37.45 61.71 38.04 C 61.60 37.03 61.46 36.01 61.29 35.00 C 63.17 32.14 64.67 29.05 65.80 25.83 C 67.23 21.64 70.70 18.44 71.61 14.03 C 72.91 8.61 75.91 3.69 80.07 0.00 Z" />
</g>
<g id="#0d5e85ff">
<path fill="#0d5e85" opacity="1.00" d=" M 88.12 0.00 L 212.03 0.00 C 212.95 0.98 214.01 1.93 214.56 3.19 C 214.61 6.67 212.37 10.38 214.37 13.64 C 216.51 17.35 217.96 21.38 218.82 25.57 C 216.68 29.09 214.57 32.62 212.53 36.20 C 212.59 30.80 212.57 25.39 212.57 19.99 C 209.04 20.00 205.52 20.00 202.00 20.00 C 201.99 32.35 201.92 44.69 201.97 57.04 C 204.60 57.02 207.23 57.01 209.86 56.99 C 211.59 54.05 213.37 51.15 215.15 48.24 C 215.51 48.88 216.24 50.16 216.60 50.80 C 214.98 53.72 213.69 56.95 211.26 59.31 C 208.16 60.42 204.75 59.84 201.52 60.02 C 202.29 60.69 203.05 61.37 203.81 62.06 C 207.09 65.50 202.68 69.14 200.74 72.00 L 198.12 72.00 C 199.03 69.88 200.25 67.62 199.79 65.24 C 199.40 63.06 197.16 62.13 195.54 60.99 C 195.45 51.90 195.54 42.81 195.48 33.73 C 196.38 33.75 198.17 33.78 199.06 33.80 C 199.05 33.41 199.02 32.61 199.00 32.22 C 197.54 32.21 196.09 32.21 194.63 32.21 C 194.70 39.42 194.64 46.64 194.66 53.85 C 193.67 54.89 192.70 55.94 191.72 56.98 C 191.68 47.66 191.71 38.34 191.70 29.02 C 194.30 29.02 196.91 29.01 199.52 28.99 C 199.52 25.99 199.51 22.99 199.51 19.99 C 190.71 19.99 181.90 19.97 173.10 19.99 C 173.10 23.00 173.09 26.01 173.09 29.03 C 172.41 29.04 171.05 29.07 170.37 29.09 C 170.39 26.05 170.39 23.02 170.38 19.98 C 161.25 19.99 152.12 19.98 142.99 19.99 C 142.98 21.47 142.98 22.95 142.98 24.43 C 140.77 25.51 138.67 26.77 136.67 28.19 C 135.67 24.29 133.06 20.38 128.91 19.43 C 123.29 18.31 116.41 18.67 112.54 23.51 C 108.38 29.08 108.38 36.54 108.88 43.17 C 108.17 41.40 107.70 38.66 105.24 38.73 C 100.92 38.37 96.67 37.50 92.42 36.66 C 92.37 30.95 91.97 23.87 96.89 19.91 C 100.80 16.85 105.02 21.76 109.32 20.68 C 110.39 16.94 111.34 13.15 111.85 9.28 C 111.54 9.26 110.93 9.23 110.62 9.22 C 109.59 12.63 110.22 17.84 106.08 19.25 C 102.72 19.34 99.74 16.39 96.34 17.46 C 93.56 18.77 92.72 22.08 92.01 24.81 C 90.90 25.57 89.78 26.31 88.66 27.06 C 89.26 22.53 90.39 17.13 94.82 14.83 C 98.55 12.82 102.42 15.53 106.09 16.30 C 106.77 13.11 107.45 9.92 108.06 6.72 C 100.46 4.36 91.37 3.64 84.52 8.39 C 85.49 5.50 86.70 2.70 88.12 0.00 M 215.29 22.08 C 214.58 23.31 214.55 24.55 215.21 25.79 C 217.03 26.13 217.46 20.94 215.29 22.08 Z" />
</g>
<g id="#094d71ff">
<path fill="#094d71" opacity="1.00" d=" M 212.03 0.00 L 234.49 0.00 C 231.29 2.16 227.48 2.80 223.88 3.93 C 221.53 5.42 219.97 7.83 218.19 9.91 C 219.02 10.65 219.86 11.39 220.70 12.14 C 221.04 14.80 221.44 17.45 221.94 20.09 C 220.94 21.94 219.90 23.77 218.82 25.57 C 217.96 21.38 216.51 17.35 214.37 13.64 C 212.37 10.38 214.61 6.67 214.56 3.19 C 214.01 1.93 212.95 0.98 212.03 0.00 Z" />
</g>
<g id="#0c5e81ff">
<path fill="#0c5e81" opacity="1.00" d=" M 234.49 0.00 L 303.00 0.00 L 303.00 32.97 C 298.88 32.83 294.76 32.66 290.65 32.91 C 291.65 29.69 293.09 26.33 292.03 22.92 C 291.07 26.03 290.21 29.16 289.10 32.22 C 288.71 32.34 287.93 32.59 287.53 32.72 C 286.29 31.74 285.11 30.72 283.89 29.72 C 284.61 29.82 286.06 30.01 286.79 30.11 C 287.58 27.41 288.35 24.71 289.08 21.99 C 284.26 19.64 278.61 19.39 273.44 20.58 C 267.37 22.52 265.07 29.37 264.83 35.15 C 264.35 35.61 263.88 36.08 263.41 36.54 C 262.95 36.18 262.03 35.46 261.57 35.10 C 262.00 33.41 262.38 31.71 262.84 30.02 C 263.84 28.49 264.74 26.90 265.42 25.20 C 264.49 25.02 262.62 24.66 261.69 24.48 C 262.37 23.01 263.02 21.53 263.66 20.04 C 259.81 19.97 255.95 19.98 252.10 20.02 C 250.19 24.39 248.26 28.76 246.54 33.20 C 246.60 28.80 246.58 24.39 246.57 19.98 C 243.04 19.98 239.51 19.98 235.99 19.99 C 236.01 26.70 235.98 33.42 235.99 40.14 C 234.84 40.47 233.70 40.79 232.56 41.12 C 232.28 34.54 233.09 27.95 232.49 21.39 C 231.99 28.28 232.61 35.20 232.45 42.11 C 231.81 42.12 230.54 42.14 229.90 42.15 C 229.90 34.77 229.90 27.38 229.91 19.99 C 227.25 20.00 224.59 20.01 221.94 20.09 C 221.44 17.45 221.04 14.80 220.70 12.14 C 219.86 11.39 219.02 10.65 218.19 9.91 C 219.97 7.83 221.53 5.42 223.88 3.93 C 227.48 2.80 231.29 2.16 234.49 0.00 M 265.24 23.18 C 265.72 23.73 265.72 23.73 265.24 23.18 Z" />
</g>
<g id="#ffffffff">
<path fill="#ffffff" opacity="1.00" d=" M 23.40 13.38 C 27.39 9.39 31.15 5.04 35.95 1.99 C 46.90 10.64 56.96 21.47 61.29 35.00 C 61.46 36.01 61.60 37.03 61.71 38.04 C 62.73 45.17 61.00 52.54 56.29 58.07 C 54.36 59.79 52.28 61.34 50.01 62.58 C 46.58 64.21 42.91 65.37 39.13 65.83 C 30.77 66.58 21.90 64.22 15.73 58.37 C 11.23 53.89 9.86 47.34 10.11 41.19 C 9.76 30.35 16.31 20.95 23.40 13.38 M 13.66 29.79 C 13.25 31.23 11.79 32.74 12.61 34.27 L 12.27 33.59 C 10.91 39.51 10.94 45.71 12.59 51.56 L 13.01 51.70 C 14.89 56.78 19.34 60.24 24.16 62.36 C 26.24 63.00 28.28 63.81 30.45 64.13 C 42.04 66.42 56.90 61.01 59.78 48.45 L 60.23 48.10 C 61.04 43.08 61.12 37.75 59.03 33.01 C 58.80 31.42 57.93 29.98 57.36 28.49 C 56.26 26.57 55.16 24.65 54.05 22.74 C 52.42 20.58 50.78 18.43 49.11 16.30 C 45.12 11.98 41.15 7.53 36.29 4.17 C 36.19 3.99 35.99 3.64 35.89 3.46 C 27.04 10.82 18.59 19.23 13.66 29.79 Z" />
<path fill="#ffffff" opacity="1.00" d=" M 84.52 8.39 C 91.37 3.64 100.46 4.36 108.06 6.72 C 107.45 9.92 106.77 13.11 106.09 16.30 C 102.42 15.53 98.55 12.82 94.82 14.83 C 90.39 17.13 89.26 22.53 88.66 27.06 C 88.37 32.76 88.29 38.82 91.04 44.00 C 92.51 46.91 95.69 49.10 98.99 48.95 C 101.54 48.31 104.03 47.43 106.56 46.73 C 107.29 49.60 108.01 52.48 108.74 55.35 C 103.14 58.32 96.50 58.63 90.39 57.46 C 86.18 56.60 82.85 53.56 80.65 49.99 C 78.36 45.50 77.23 40.50 77.11 35.48 C 77.03 33.50 77.03 31.52 77.05 29.54 C 77.10 25.67 77.52 21.78 78.58 18.04 C 79.87 14.46 81.77 11.05 84.52 8.39 Z" />
<path fill="#ffffff" opacity="1.00" d=" M 110.62 9.22 C 110.93 9.23 111.54 9.26 111.85 9.28 C 111.34 13.15 110.39 16.94 109.32 20.68 C 105.02 21.76 100.80 16.85 96.89 19.91 C 91.97 23.87 92.37 30.95 92.42 36.66 C 92.47 38.21 92.53 39.75 92.55 41.30 C 91.52 35.88 91.21 30.29 92.01 24.81 C 92.72 22.08 93.56 18.77 96.34 17.46 C 99.74 16.39 102.72 19.34 106.08 19.25 C 110.22 17.84 109.59 12.63 110.62 9.22 Z" />
<path fill="#ffffff" opacity="1.00" d=" M 35.32 19.24 L 36.03 19.05 C 40.83 22.70 45.05 27.45 47.39 33.06 C 49.28 37.36 48.60 42.85 45.06 46.10 C 39.88 50.65 31.27 50.58 26.27 45.77 C 22.84 42.30 22.54 36.73 24.53 32.45 C 26.93 27.24 30.80 22.73 35.32 19.24 M 24.75 35.92 C 23.42 41.08 27.09 46.58 32.24 47.64 C 38.74 49.91 47.43 45.39 47.24 37.96 C 46.48 30.63 41.01 25.07 35.88 20.30 C 31.13 24.58 26.29 29.50 24.75 35.92 Z" />
<path fill="#ffffff" opacity="1.00" d=" M 112.54 23.51 C 116.41 18.67 123.29 18.31 128.91 19.43 C 133.06 20.38 135.67 24.29 136.67 28.19 C 137.17 32.70 137.17 37.27 136.51 41.76 C 130.71 42.40 124.85 41.79 119.02 42.04 C 119.73 44.87 120.33 48.54 123.56 49.55 C 127.08 51.13 130.28 47.42 133.85 48.31 C 134.70 50.50 135.55 52.70 136.31 54.93 C 130.69 58.04 123.90 58.98 117.69 57.29 C 111.79 55.36 109.35 48.85 108.88 43.17 C 108.38 36.54 108.38 29.08 112.54 23.51 M 123.33 27.23 C 120.32 28.56 119.96 32.17 119.41 34.99 C 122.01 35.00 124.61 35.00 127.21 35.00 C 126.96 32.27 126.99 27.46 123.33 27.23 Z" />
<path fill="#ffffff" opacity="1.00" d=" M 142.99 19.99 C 152.12 19.98 161.25 19.99 170.38 19.98 C 170.39 23.02 170.39 26.05 170.37 29.09 C 170.31 38.40 170.42 47.70 170.33 57.01 C 166.76 57.00 163.20 57.00 159.64 57.00 C 159.63 47.66 159.65 38.33 159.65 29.00 C 157.62 29.00 155.59 29.00 153.56 28.99 C 153.56 38.32 153.54 47.64 153.59 56.96 C 150.06 57.00 146.53 57.00 143.00 57.00 C 143.00 54.37 143.00 51.74 143.00 49.10 C 142.98 40.88 143.03 32.65 142.98 24.43 C 142.98 22.95 142.98 21.47 142.99 19.99 Z" />
<path fill="#ffffff" opacity="1.00" d=" M 173.10 19.99 C 181.90 19.97 190.71 19.99 199.51 19.99 C 199.51 22.99 199.52 25.99 199.52 28.99 C 196.91 29.01 194.30 29.02 191.70 29.02 C 191.71 38.34 191.68 47.66 191.72 56.98 C 188.18 57.00 184.64 57.00 181.10 56.99 C 181.10 47.66 181.11 38.33 181.10 29.00 C 178.43 28.99 175.76 28.98 173.09 29.03 C 173.09 26.01 173.10 23.00 173.10 19.99 Z" />
<path fill="#ffffff" opacity="1.00" d=" M 202.00 20.00 C 205.52 20.00 209.04 20.00 212.57 19.99 C 212.57 25.39 212.59 30.80 212.53 36.20 C 214.57 32.62 216.68 29.09 218.82 25.57 C 219.90 23.77 220.94 21.94 221.94 20.09 C 224.59 20.01 227.25 20.00 229.91 19.99 C 229.90 27.38 229.90 34.77 229.90 42.15 C 229.90 47.10 229.90 52.05 229.90 56.99 C 226.42 57.00 222.93 57.00 219.45 56.99 C 219.45 51.68 219.43 46.37 219.50 41.05 C 218.06 43.46 216.60 45.85 215.15 48.24 C 213.37 51.15 211.59 54.05 209.86 56.99 C 207.23 57.01 204.60 57.02 201.97 57.04 C 201.92 44.69 201.99 32.35 202.00 20.00 Z" />
<path fill="#ffffff" opacity="1.00" d=" M 235.99 19.99 C 239.51 19.98 243.04 19.98 246.57 19.98 C 246.58 24.39 246.60 28.80 246.54 33.20 C 248.26 28.76 250.19 24.39 252.10 20.02 C 255.95 19.98 259.81 19.97 263.66 20.04 C 263.02 21.53 262.37 23.01 261.69 24.48 C 259.46 28.66 258.21 33.51 254.60 36.79 C 259.39 41.05 260.29 47.86 263.19 53.33 C 263.67 54.54 264.14 55.75 264.62 56.96 C 260.59 57.02 256.57 57.01 252.55 56.91 C 250.66 52.08 248.58 47.32 246.58 42.54 C 246.54 47.36 246.57 52.18 246.55 57.00 C 243.03 57.00 239.52 57.00 236.00 57.00 C 235.99 51.38 236.01 45.76 235.99 40.14 C 235.98 33.42 236.01 26.70 235.99 19.99 Z" />
<path fill="#ffffff" opacity="1.00" d=" M 273.44 20.58 C 278.61 19.39 284.26 19.64 289.08 21.99 C 288.35 24.71 287.58 27.41 286.79 30.11 C 286.06 30.01 284.61 29.82 283.89 29.72 C 281.99 29.09 279.76 28.58 278.14 30.14 C 275.45 32.95 275.45 37.26 275.67 40.90 C 275.92 44.17 277.34 48.25 280.98 48.96 C 283.11 48.37 285.09 47.34 287.16 46.57 C 287.89 49.41 288.60 52.27 289.23 55.14 C 284.60 58.18 278.72 58.76 273.42 57.45 C 270.04 56.52 267.68 53.71 266.31 50.62 C 264.74 45.64 264.39 40.34 264.83 35.15 C 265.07 29.37 267.37 22.52 273.44 20.58 Z" />
<path fill="#ffffff" opacity="1.00" d=" M 232.49 21.39 C 233.09 27.95 232.28 34.54 232.56 41.12 C 232.61 46.86 232.15 52.66 233.35 58.33 C 233.66 59.55 233.79 61.66 231.96 61.58 C 227.70 61.76 222.99 62.64 219.10 60.41 C 223.60 60.14 228.18 60.57 232.57 59.32 C 232.73 53.58 232.31 47.85 232.45 42.11 C 232.61 35.20 231.99 28.28 232.49 21.39 Z" />
<path fill="#ffffff" opacity="1.00" d=" M 292.03 22.92 C 293.09 26.33 291.65 29.69 290.65 32.91 C 290.48 33.27 290.15 33.98 289.98 34.34 C 286.91 34.91 283.79 34.31 280.70 34.30 C 279.51 37.88 279.24 41.64 279.37 45.40 C 278.48 41.00 277.99 36.27 280.06 32.11 C 282.51 32.58 285.05 33.58 287.53 32.72 C 287.93 32.59 288.71 32.34 289.10 32.22 C 290.21 29.16 291.07 26.03 292.03 22.92 Z" />
<path fill="#ffffff" opacity="1.00" d=" M 260.13 39.25 C 258.31 35.38 261.79 31.91 263.16 28.49 L 262.84 30.02 C 262.38 31.71 262.00 33.41 261.57 35.10 C 261.16 36.51 260.65 37.88 260.13 39.25 Z" />
<path fill="#ffffff" opacity="1.00" d=" M 156.44 58.23 C 156.33 49.38 156.04 40.50 156.52 31.67 C 157.28 41.17 155.82 50.80 157.50 60.22 C 155.54 62.39 152.50 61.68 149.92 61.82 C 147.49 61.66 144.58 62.38 142.73 60.35 C 146.23 60.15 149.73 60.21 153.23 60.27 C 154.30 59.59 155.37 58.91 156.44 58.23 Z" />
<path fill="#ffffff" opacity="1.00" d=" M 194.63 32.21 C 196.09 32.21 197.54 32.21 199.00 32.22 C 199.02 32.61 199.05 33.41 199.06 33.80 C 198.17 33.78 196.38 33.75 195.48 33.73 C 195.54 42.81 195.45 51.90 195.54 60.99 C 190.72 62.00 185.19 62.74 180.64 60.44 C 185.31 59.80 190.50 61.34 194.62 58.40 C 194.63 56.88 194.64 55.37 194.66 53.85 C 194.64 46.64 194.70 39.42 194.63 32.21 Z" />
<path fill="#ffffff" opacity="1.00" d=" M 139.54 37.99 C 139.63 40.60 139.89 43.21 139.72 45.82 C 138.01 47.93 135.21 46.05 133.23 45.34 C 135.05 45.21 136.84 44.83 138.60 44.33 C 139.08 42.24 139.39 40.13 139.54 37.99 Z" />
</g>
<g id="#04395bff">
<path fill="#04395b" opacity="1.00" d=" M 13.66 29.79 C 18.59 19.23 27.04 10.82 35.89 3.46 C 35.99 3.64 36.19 3.99 36.29 4.17 C 39.27 9.72 43.39 14.62 45.69 20.53 C 46.53 22.65 47.23 24.81 47.98 26.96 C 48.80 30.33 49.51 33.75 49.82 37.21 C 49.85 39.07 49.79 40.92 49.73 42.78 C 48.98 49.12 47.02 55.20 45.18 61.29 C 48.34 60.01 51.62 58.60 53.87 55.92 C 56.03 53.58 57.02 50.25 59.78 48.45 C 56.90 61.01 42.04 66.42 30.45 64.13 C 33.51 63.66 36.56 63.10 39.62 62.64 C 39.61 59.87 39.66 57.09 39.77 54.32 C 35.65 54.99 31.48 55.14 27.32 54.93 C 26.02 54.48 24.75 54.00 23.47 53.53 C 23.53 52.13 23.59 50.74 23.65 49.35 C 19.14 44.99 15.14 40.07 12.61 34.27 C 11.79 32.74 13.25 31.23 13.66 29.79 M 35.32 19.24 C 30.80 22.73 26.93 27.24 24.53 32.45 C 22.54 36.73 22.84 42.30 26.27 45.77 C 31.27 50.58 39.88 50.65 45.06 46.10 C 48.60 42.85 49.28 37.36 47.39 33.06 C 45.05 27.45 40.83 22.70 36.03 19.05 L 35.32 19.24 Z" />
</g>
<g id="#0891c1ff">
<path fill="#0891c1" opacity="1.00" d=" M 36.29 4.17 C 41.15 7.53 45.12 11.98 49.11 16.30 C 47.97 17.71 46.83 19.12 45.69 20.53 C 43.39 14.62 39.27 9.72 36.29 4.17 Z" />
</g>
<g id="#017faaff">
<path fill="#017faa" opacity="1.00" d=" M 45.69 20.53 C 46.83 19.12 47.97 17.71 49.11 16.30 C 50.78 18.43 52.42 20.58 54.05 22.74 C 52.91 25.03 51.40 27.10 49.61 28.92 C 49.20 28.43 48.39 27.45 47.98 26.96 C 47.23 24.81 46.53 22.65 45.69 20.53 Z" />
</g>
<g id="#0f6089ff">
<path fill="#0f6089" opacity="1.00" d=" M 66.80 30.83 C 66.99 24.20 72.98 20.17 78.58 18.04 C 77.52 21.78 77.10 25.67 77.05 29.54 C 74.12 29.60 71.29 30.38 68.75 31.83 C 68.26 31.58 67.29 31.08 66.80 30.83 Z" />
</g>
<g id="#10668eff">
<path fill="#10668e" opacity="1.00" d=" M 24.75 35.92 C 26.29 29.50 31.13 24.58 35.88 20.30 C 41.01 25.07 46.48 30.63 47.24 37.96 C 47.43 45.39 38.74 49.91 32.24 47.64 C 27.09 46.58 23.42 41.08 24.75 35.92 Z" />
</g>
<g id="#6c94a7ff">
<path fill="#6c94a7" opacity="1.00" d=" M 215.29 22.08 C 217.46 20.94 217.03 26.13 215.21 25.79 C 214.55 24.55 214.58 23.31 215.29 22.08 Z" />
</g>
<g id="#056f97ff">
<path fill="#056f97" opacity="1.00" d=" M 49.61 28.92 C 51.40 27.10 52.91 25.03 54.05 22.74 C 55.16 24.65 56.26 26.57 57.36 28.49 C 56.95 30.03 56.65 31.62 55.97 33.07 C 54.22 34.84 51.92 35.93 49.82 37.21 C 49.51 33.75 48.80 30.33 47.98 26.96 C 48.39 27.45 49.20 28.43 49.61 28.92 Z" />
</g>
<g id="#5989a0ff">
<path fill="#5989a0" opacity="1.00" d=" M 265.24 23.18 C 265.72 23.73 265.72 23.73 265.24 23.18 Z" />
</g>
<g id="#146e96ff">
<path fill="#146e96" opacity="1.00" d=" M 88.66 27.06 C 89.78 26.31 90.90 25.57 92.01 24.81 C 91.21 30.29 91.52 35.88 92.55 41.30 C 92.53 39.75 92.47 38.21 92.42 36.66 C 96.67 37.50 100.92 38.37 105.24 38.73 C 107.70 38.66 108.17 41.40 108.88 43.17 C 109.35 48.85 111.79 55.36 117.69 57.29 C 123.90 58.98 130.69 58.04 136.31 54.93 C 135.55 52.70 134.70 50.50 133.85 48.31 C 136.88 48.80 139.94 49.03 143.00 49.10 C 143.00 51.74 143.00 54.37 143.00 57.00 C 146.53 57.00 150.06 57.00 153.59 56.96 C 153.54 47.64 153.56 38.32 153.56 28.99 C 155.59 29.00 157.62 29.00 159.65 29.00 C 159.65 38.33 159.63 47.66 159.64 57.00 C 163.20 57.00 166.76 57.00 170.33 57.01 C 170.42 47.70 170.31 38.40 170.37 29.09 C 171.05 29.07 172.41 29.04 173.09 29.03 C 175.76 28.98 178.43 28.99 181.10 29.00 C 181.11 38.33 181.10 47.66 181.10 56.99 C 184.64 57.00 188.18 57.00 191.72 56.98 C 192.70 55.94 193.67 54.89 194.66 53.85 C 194.64 55.37 194.63 56.88 194.62 58.40 C 190.50 61.34 185.31 59.80 180.64 60.44 C 185.19 62.74 190.72 62.00 195.54 60.99 C 197.16 62.13 199.40 63.06 199.79 65.24 C 200.25 67.62 199.03 69.88 198.12 72.00 L 56.31 72.00 C 57.78 70.08 59.36 68.19 60.37 65.97 C 61.19 62.99 60.14 59.92 59.55 56.98 C 60.59 57.52 61.63 58.05 62.67 58.58 C 62.41 56.80 62.15 55.02 61.91 53.24 C 64.68 54.12 66.40 56.38 66.88 59.22 C 67.04 59.90 67.37 61.26 67.53 61.94 C 69.53 60.15 71.81 58.28 71.79 55.33 C 72.18 53.16 73.11 51.16 74.13 49.22 C 75.41 50.09 76.68 50.95 77.96 51.82 C 78.86 51.21 79.75 50.60 80.65 49.99 C 82.85 53.56 86.18 56.60 90.39 57.46 C 96.50 58.63 103.14 58.32 108.74 55.35 C 108.01 52.48 107.29 49.60 106.56 46.73 C 104.03 47.43 101.54 48.31 98.99 48.95 C 95.69 49.10 92.51 46.91 91.04 44.00 C 88.29 38.82 88.37 32.76 88.66 27.06 M 156.44 58.23 C 155.37 58.91 154.30 59.59 153.23 60.27 C 149.73 60.21 146.23 60.15 142.73 60.35 C 144.58 62.38 147.49 61.66 149.92 61.82 C 152.50 61.68 155.54 62.39 157.50 60.22 C 155.82 50.80 157.28 41.17 156.52 31.67 C 156.04 40.50 156.33 49.38 156.44 58.23 M 173.16 32.00 C 173.00 40.62 173.49 49.27 172.91 57.86 C 169.70 61.81 163.88 59.21 159.54 60.07 C 159.96 60.50 160.81 61.36 161.24 61.79 C 164.81 62.24 168.47 62.05 172.07 61.92 C 173.54 61.91 174.43 60.29 174.29 58.95 C 174.42 50.55 174.16 42.16 174.38 33.76 C 175.32 33.84 177.20 34.00 178.14 34.08 C 178.13 33.56 178.12 32.52 178.11 32.00 C 176.46 32.00 174.81 32.00 173.16 32.00 M 136.00 58.15 C 129.20 61.81 120.93 61.85 113.84 59.02 C 116.68 61.41 120.24 63.10 124.02 63.04 C 129.52 63.35 135.52 62.49 139.85 58.84 C 140.00 57.31 140.01 55.78 139.88 54.24 C 138.71 55.65 137.74 57.36 136.00 58.15 M 84.10 58.16 C 89.84 63.73 98.53 63.81 105.90 62.38 C 108.78 61.61 113.30 60.45 112.13 56.44 C 103.93 62.03 92.95 62.49 84.10 58.16 Z" />
</g>
<g id="#11678fff">
<path fill="#11678f" opacity="1.00" d=" M 136.67 28.19 C 138.67 26.77 140.77 25.51 142.98 24.43 C 143.03 32.65 142.98 40.88 143.00 49.10 C 139.94 49.03 136.88 48.80 133.85 48.31 C 130.28 47.42 127.08 51.13 123.56 49.55 C 120.33 48.54 119.73 44.87 119.02 42.04 C 124.85 41.79 130.71 42.40 136.51 41.76 C 137.17 37.27 137.17 32.70 136.67 28.19 M 139.54 37.99 C 139.39 40.13 139.08 42.24 138.60 44.33 C 136.84 44.83 135.05 45.21 133.23 45.34 C 135.21 46.05 138.01 47.93 139.72 45.82 C 139.89 43.21 139.63 40.60 139.54 37.99 M 122.57 45.07 C 124.31 48.23 127.86 46.65 130.36 45.49 C 127.83 44.74 125.17 44.92 122.57 45.07 Z" />
</g>
<g id="#13668fff">
<path fill="#13668f" opacity="1.00" d=" M 254.60 36.79 C 258.21 33.51 259.46 28.66 261.69 24.48 C 262.62 24.66 264.49 25.02 265.42 25.20 C 264.74 26.90 263.84 28.49 262.84 30.02 L 263.16 28.49 C 261.79 31.91 258.31 35.38 260.13 39.25 C 260.65 37.88 261.16 36.51 261.57 35.10 C 262.03 35.46 262.95 36.18 263.41 36.54 C 263.88 36.08 264.35 35.61 264.83 35.15 C 264.39 40.34 264.74 45.64 266.31 50.62 C 265.27 51.52 264.22 52.43 263.19 53.33 C 260.29 47.86 259.39 41.05 254.60 36.79 Z" />
</g>
<g id="#0f668eff">
<path fill="#0f668e" opacity="1.00" d=" M 123.33 27.23 C 126.99 27.46 126.96 32.27 127.21 35.00 C 124.61 35.00 122.01 35.00 119.41 34.99 C 119.96 32.17 120.32 28.56 123.33 27.23 M 123.25 31.08 C 123.80 31.62 123.80 31.62 123.25 31.08 Z" />
</g>
<g id="#0c6187ff">
<path fill="#0c6187" opacity="1.00" d=" M 55.97 33.07 C 56.65 31.62 56.95 30.03 57.36 28.49 C 57.93 29.98 58.80 31.42 59.03 33.01 C 58.66 35.85 58.67 38.72 58.48 41.57 C 55.91 44.13 52.83 46.11 50.23 48.64 C 50.04 46.69 49.85 44.74 49.73 42.78 C 49.79 40.92 49.85 39.07 49.82 37.21 C 51.92 35.93 54.22 34.84 55.97 33.07 Z" />
</g>
<g id="#12688fff">
<path fill="#12688f" opacity="1.00" d=" M 278.14 30.14 C 279.76 28.58 281.99 29.09 283.89 29.72 C 285.11 30.72 286.29 31.74 287.53 32.72 C 285.05 33.58 282.51 32.58 280.06 32.11 C 277.99 36.27 278.48 41.00 279.37 45.40 C 279.24 41.64 279.51 37.88 280.70 34.30 C 283.79 34.31 286.91 34.91 289.98 34.34 C 290.15 33.98 290.48 33.27 290.65 32.91 C 294.76 32.66 298.88 32.83 303.00 32.97 L 303.00 57.24 C 299.61 57.03 296.27 56.37 293.03 55.35 C 293.06 55.00 293.13 54.30 293.16 53.95 C 294.41 51.82 295.75 48.58 293.23 46.77 C 291.55 44.83 289.14 45.80 287.16 46.57 C 285.09 47.34 283.11 48.37 280.98 48.96 C 277.34 48.25 275.92 44.17 275.67 40.90 C 275.45 37.26 275.45 32.95 278.14 30.14 Z" />
</g>
<g id="#b0bdc0ff">
<path fill="#b0bdc0" opacity="1.00" d=" M 123.25 31.08 C 123.80 31.62 123.80 31.62 123.25 31.08 Z" />
</g>
<g id="#c1c8c6ff">
<path fill="#c1c8c6" opacity="1.00" d=" M 173.16 32.00 C 174.81 32.00 176.46 32.00 178.11 32.00 C 178.12 32.52 178.13 33.56 178.14 34.08 C 177.20 34.00 175.32 33.84 174.38 33.76 C 174.16 42.16 174.42 50.55 174.29 58.95 C 174.43 60.29 173.54 61.91 172.07 61.92 C 168.47 62.05 164.81 62.24 161.24 61.79 C 160.81 61.36 159.96 60.50 159.54 60.07 C 163.88 59.21 169.70 61.81 172.91 57.86 C 173.49 49.27 173.00 40.62 173.16 32.00 Z" />
</g>
<g id="#014d6fff">
<path fill="#014d6f" opacity="1.00" d=" M 12.27 33.59 L 12.61 34.27 C 15.14 40.07 19.14 44.99 23.65 49.35 C 23.59 50.74 23.53 52.13 23.47 53.53 C 24.75 54.00 26.02 54.48 27.32 54.93 C 26.84 54.91 25.90 54.88 25.42 54.87 C 21.13 54.55 17.10 52.92 13.01 51.70 L 12.59 51.56 C 10.94 45.71 10.91 39.51 12.27 33.59 Z" />
</g>
<g id="#095378ff">
<path fill="#095378" opacity="1.00" d=" M 58.48 41.57 C 58.67 38.72 58.66 35.85 59.03 33.01 C 61.12 37.75 61.04 43.08 60.23 48.10 L 59.78 48.45 C 57.02 50.25 56.03 53.58 53.87 55.92 C 51.62 58.60 48.34 60.01 45.18 61.29 C 47.02 55.20 48.98 49.12 49.73 42.78 C 49.85 44.74 50.04 46.69 50.23 48.64 C 52.83 46.11 55.91 44.13 58.48 41.57 Z" />
</g>
<g id="#10628cff">
<path fill="#10628c" opacity="1.00" d=" M 61.71 38.04 C 62.82 37.45 63.93 36.86 65.04 36.26 C 67.35 38.39 69.95 40.17 72.72 41.65 C 73.36 40.01 74.00 38.38 74.64 36.75 C 75.26 36.43 76.49 35.80 77.11 35.48 C 77.23 40.50 78.36 45.50 80.65 49.99 C 79.75 50.60 78.86 51.21 77.96 51.82 C 76.68 50.95 75.41 50.09 74.13 49.22 C 73.11 51.16 72.18 53.16 71.79 55.33 C 71.29 54.19 70.77 53.06 70.24 51.94 C 67.31 53.18 67.07 56.45 66.88 59.22 C 66.40 56.38 64.68 54.12 61.91 53.24 C 62.15 55.02 62.41 56.80 62.67 58.58 C 61.63 58.05 60.59 57.52 59.55 56.98 C 60.14 59.92 61.19 62.99 60.37 65.97 C 59.36 68.19 57.78 70.08 56.31 72.00 L 53.74 72.00 C 55.80 67.72 56.65 62.80 56.29 58.07 C 61.00 52.54 62.73 45.17 61.71 38.04 Z" />
</g>
<g id="#146d95ff">
<path fill="#146d95" opacity="1.00" d=" M 6.81 40.27 C 7.91 40.58 9.01 40.88 10.11 41.19 C 9.86 47.34 11.23 53.89 15.73 58.37 C 21.90 64.22 30.77 66.58 39.13 65.83 C 38.46 67.90 37.81 69.97 37.04 72.00 L 0.00 72.00 L 0.00 51.32 C 2.06 48.93 4.67 47.06 6.67 44.61 C 7.28 43.25 6.78 41.71 6.81 40.27 Z" />
</g>
<g id="#176d95ff">
<path fill="#176d95" opacity="1.00" d=" M 232.56 41.12 C 233.70 40.79 234.84 40.47 235.99 40.14 C 236.01 45.76 235.99 51.38 236.00 57.00 C 239.52 57.00 243.03 57.00 246.55 57.00 C 246.57 52.18 246.54 47.36 246.58 42.54 C 248.58 47.32 250.66 52.08 252.55 56.91 C 256.57 57.01 260.59 57.02 264.62 56.96 C 264.14 55.75 263.67 54.54 263.19 53.33 C 264.22 52.43 265.27 51.52 266.31 50.62 C 267.68 53.71 270.04 56.52 273.42 57.45 C 278.72 58.76 284.60 58.18 289.23 55.14 C 288.60 52.27 287.89 49.41 287.16 46.57 C 289.14 45.80 291.55 44.83 293.23 46.77 C 295.75 48.58 294.41 51.82 293.16 53.95 C 291.28 56.94 288.59 59.48 285.01 60.15 C 280.25 61.26 274.25 62.11 270.31 58.55 C 269.38 58.21 268.45 57.87 267.51 57.55 C 263.47 61.82 257.14 59.28 252.01 60.07 C 253.21 60.90 254.35 62.14 255.97 61.97 C 260.02 62.10 264.15 62.32 268.13 61.33 L 267.23 59.88 C 268.38 59.92 269.52 59.96 270.67 60.02 C 274.72 63.60 280.48 63.44 285.50 62.68 C 289.18 62.03 294.08 60.01 293.03 55.35 C 296.27 56.37 299.61 57.03 303.00 57.24 L 303.00 72.00 L 200.74 72.00 C 202.68 69.14 207.09 65.50 203.81 62.06 C 206.78 62.00 209.79 62.22 212.74 61.74 C 215.59 58.89 217.19 54.84 216.60 50.80 C 216.24 50.16 215.51 48.88 215.15 48.24 C 216.60 45.85 218.06 43.46 219.50 41.05 C 219.43 46.37 219.45 51.68 219.45 56.99 C 222.93 57.00 226.42 57.00 229.90 56.99 C 229.90 52.05 229.90 47.10 229.90 42.15 C 230.54 42.14 231.81 42.12 232.45 42.11 C 232.31 47.85 232.73 53.58 232.57 59.32 C 228.18 60.57 223.60 60.14 219.10 60.41 C 222.99 62.64 227.70 61.76 231.96 61.58 C 233.79 61.66 233.66 59.55 233.35 58.33 C 232.15 52.66 232.61 46.86 232.56 41.12 M 291.18 50.31 C 290.31 51.55 290.53 52.29 291.84 52.55 C 292.70 51.31 292.48 50.57 291.18 50.31 M 246.02 59.86 C 242.59 60.18 239.13 59.87 235.69 60.10 C 237.24 62.74 240.49 61.90 243.03 62.04 C 245.68 61.98 248.76 62.53 250.66 60.22 C 250.47 59.25 250.07 57.32 249.87 56.35 C 249.04 57.92 248.01 59.70 246.02 59.86 Z" />
</g>
<g id="#c1c7c5ff">
<path fill="#c1c7c5" opacity="1.00" d=" M 122.57 45.07 C 125.17 44.92 127.83 44.74 130.36 45.49 C 127.86 46.65 124.31 48.23 122.57 45.07 Z" />
<path fill="#c1c7c5" opacity="1.00" d=" M 216.60 50.80 C 217.19 54.84 215.59 58.89 212.74 61.74 C 209.79 62.22 206.78 62.00 203.81 62.06 C 203.05 61.37 202.29 60.69 201.52 60.02 C 204.75 59.84 208.16 60.42 211.26 59.31 C 213.69 56.95 214.98 53.72 216.60 50.80 Z" />
</g>
<g id="#548ea6ff">
<path fill="#548ea6" opacity="1.00" d=" M 291.18 50.31 C 292.48 50.57 292.70 51.31 291.84 52.55 C 290.53 52.29 290.31 51.55 291.18 50.31 Z" />
</g>
<g id="#006d93ff">
<path fill="#006d93" opacity="1.00" d=" M 13.01 51.70 C 17.10 52.92 21.13 54.55 25.42 54.87 C 25.25 57.40 24.83 59.91 24.16 62.36 C 19.34 60.24 14.89 56.78 13.01 51.70 Z" />
</g>
<g id="#0d4b78ff">
<path fill="#0d4b78" opacity="1.00" d=" M 66.88 59.22 C 67.07 56.45 67.31 53.18 70.24 51.94 C 70.77 53.06 71.29 54.19 71.79 55.33 C 71.81 58.28 69.53 60.15 67.53 61.94 C 67.37 61.26 67.04 59.90 66.88 59.22 Z" />
</g>
<g id="#015a79ff">
<path fill="#015a79" opacity="1.00" d=" M 27.32 54.93 C 31.48 55.14 35.65 54.99 39.77 54.32 C 39.66 57.09 39.61 59.87 39.62 62.64 C 36.56 63.10 33.51 63.66 30.45 64.13 C 28.28 63.81 26.24 63.00 24.16 62.36 C 24.83 59.91 25.25 57.40 25.42 54.87 C 25.90 54.88 26.84 54.91 27.32 54.93 Z" />
</g>
<g id="#c0c8c6ff">
<path fill="#c0c8c6" opacity="1.00" d=" M 285.01 60.15 C 288.59 59.48 291.28 56.94 293.16 53.95 C 293.13 54.30 293.06 55.00 293.03 55.35 C 294.08 60.01 289.18 62.03 285.50 62.68 C 280.48 63.44 274.72 63.60 270.67 60.02 C 269.52 59.96 268.38 59.92 267.23 59.88 L 268.13 61.33 C 264.15 62.32 260.02 62.10 255.97 61.97 C 254.35 62.14 253.21 60.90 252.01 60.07 C 257.14 59.28 263.47 61.82 267.51 57.55 C 268.45 57.87 269.38 58.21 270.31 58.55 C 274.25 62.11 280.25 61.26 285.01 60.15 Z" />
</g>
<g id="#c2c9c7ff">
<path fill="#c2c9c7" opacity="1.00" d=" M 136.00 58.15 C 137.74 57.36 138.71 55.65 139.88 54.24 C 140.01 55.78 140.00 57.31 139.85 58.84 C 135.52 62.49 129.52 63.35 124.02 63.04 C 120.24 63.10 116.68 61.41 113.84 59.02 C 120.93 61.85 129.20 61.81 136.00 58.15 Z" />
</g>
<g id="#bfc7c6ff">
<path fill="#bfc7c6" opacity="1.00" d=" M 84.10 58.16 C 92.95 62.49 103.93 62.03 112.13 56.44 C 113.30 60.45 108.78 61.61 105.90 62.38 C 98.53 63.81 89.84 63.73 84.10 58.16 Z" />
</g>
<g id="#d3d2cbff">
<path fill="#d3d2cb" opacity="1.00" d=" M 246.02 59.86 C 248.01 59.70 249.04 57.92 249.87 56.35 C 250.07 57.32 250.47 59.25 250.66 60.22 C 248.76 62.53 245.68 61.98 243.03 62.04 C 240.49 61.90 237.24 62.74 235.69 60.10 C 239.13 59.87 242.59 60.18 246.02 59.86 Z" />
</g>
<g id="#105179ff">
<path fill="#105179" opacity="1.00" d=" M 50.01 62.58 C 52.28 61.34 54.36 59.79 56.29 58.07 C 56.65 62.80 55.80 67.72 53.74 72.00 L 46.81 72.00 C 48.07 68.93 49.03 65.75 50.01 62.58 Z" />
</g>
<g id="#10628bff">
<path fill="#10628b" opacity="1.00" d=" M 39.13 65.83 C 42.91 65.37 46.58 64.21 50.01 62.58 C 49.03 65.75 48.07 68.93 46.81 72.00 L 37.04 72.00 C 37.81 69.97 38.46 67.90 39.13 65.83 Z" />
</g>
</svg>
